<svg xmlns="http://www.w3.org/2000/svg" viewBox="0 0 832 200" width="100%" height="200">
  <defs>
    <style>
      .bg { fill: #070B16; }
      .text-white { fill: #F5F7FA; font-family: -apple-system, BlinkMacSystemFont, "Segoe UI", Roboto, Helvetica, Arial, sans-serif; font-weight: 800; font-size: 24px; letter-spacing: -0.5px; }
      .text-muted { fill: #8B95A7; font-family: -apple-system, BlinkMacSystemFont, "Segoe UI", Roboto, Helvetica, Arial, sans-serif; font-weight: 500; font-size: 14px; }
      .text-mono { font-family: "SFMono-Regular", Consolas, "Liberation Mono", Menlo, Courier, monospace; fill: #247BFF; font-size: 10px; font-weight: 700; letter-spacing: 2px; }
      
      .btn { fill: #FF354F; }
      .btn-text { fill: #F5F7FA; font-family: "SFMono-Regular", Consolas, "Liberation Mono", Menlo, Courier, monospace; font-size: 12px; font-weight: 700; letter-spacing: 1px; }
      
      .social-icon { fill: #F5F7FA; }
      
      .hover-zone:hover .btn { fill: #D9253C; }
    </style>
  </defs>

  <rect width="832" height="200" class="bg" rx="16" />
  <rect x="1" y="1" width="830" height="198" fill="none" stroke="rgba(255,255,255,0.12)" stroke-width="1" rx="16" />
  
  <text x="40" y="45" class="text-mono">CONNECT</text>

  <text x="40" y="90" class="text-white">LET'S BUILD SOMETHING EXTRAORDINARY.</text>
  <text x="40" y="120" class="text-muted">Always open to discussing AI, Data Science, and Creative Tech.</text>
  
  <g class="hover-zone">
    <rect x="40" y="140" width="160" height="36" class="btn" rx="4" />
    <text x="120" y="162" class="btn-text" text-anchor="middle">GET IN TOUCH</text>
  </g>

  <!-- Social Icons (Visual only since SVG links don't work reliably in GH markdown if img tags are used, but they can be wrapped in markdown links) -->
  <g transform="translate(680, 140)">
    <!-- X/Twitter -->
    <path class="social-icon" d="M 18.244 2.25 h 3.308 l -7.227 8.26 l 8.502 11.24 H 16.17 l -5.214 -6.817 L 5.09 21.75 H 1.78 l 7.734 -8.835 L 1.254 2.25 H 8.08 l 4.713 6.231 zm -1.161 17.52 h 1.833 L 7.085 4.126 H 5.117 z" transform="translate(0, 5) scale(0.8)"/>
    
    <!-- LinkedIn -->
    <path class="social-icon" d="M 20.447 20.452 h -3.554 v -5.569 c 0 -1.328 -0.027 -3.037 -1.852 -3.037 c -1.853 0 -2.136 1.445 -2.136 2.939 v 5.667 H 9.351 V 9 h 3.414 v 1.561 h 0.046 c 0.477 -0.9 1.637 -1.85 3.37 -1.85 c 3.601 0 4.267 2.37 4.267 5.455 v 6.286 z M 5.337 7.433 c -1.144 0 -2.063 -0.926 -2.063 -2.065 c 0 -1.138 0.92 -2.063 2.063 -2.063 c 1.14 0 2.064 0.925 2.064 2.063 c 0 1.139 -0.925 2.065 -2.064 2.065 z m 1.782 13.019 H 3.555 V 9 h 3.564 v 11.452 z M 22.225 0 H 1.771 C 0.792 0 0 0.774 0 1.729 v 20.542 C 0 23.227 0.792 24 1.771 24 h 20.451 C 23.2 24 24 23.227 24 22.271 V 1.729 C 24 0.774 23.2 0 22.222 0 h 0.003 z" transform="translate(40, 5) scale(0.8)"/>

    <!-- GitHub -->
    <path class="social-icon" d="M 12 1.27 a 11 11 0 0 0 -3.48 21.46 c 0.55 0.1 0.75 -0.24 0.75 -0.53 v -1.87 c -3.06 0.67 -3.71 -1.48 -3.71 -1.48 c -0.5 -1.27 -1.22 -1.61 -1.22 -1.61 c -1 -0.68 0.08 -0.67 0.08 -0.67 c 1.1 0.08 1.68 1.13 1.68 1.13 c 0.98 1.68 2.57 1.2 3.2 0.92 c 0.1 -0.71 0.38 -1.2 0.69 -1.48 c -2.44 -0.28 -5.01 -1.22 -5.01 -5.44 c 0 -1.2 0.43 -2.18 1.13 -2.95 c -0.11 -0.28 -0.49 -1.4 0.11 -2.91 c 0 0 0.92 -0.29 3 1.12 c 0.88 -0.24 1.81 -0.37 2.74 -0.37 c 0.93 0 1.86 0.13 2.74 0.37 c 2.08 -1.41 3 -1.12 3 -1.12 c 0.6 1.51 0.22 2.63 0.11 2.91 c 0.7 0.77 1.13 1.75 1.13 2.95 c 0 4.23 -2.57 5.16 -5.02 5.43 c 0.39 0.34 0.74 1.01 0.74 2.03 v 3.01 c 0 0.29 0.2 0.64 0.76 0.53 A 11 11 0 0 0 12 1.27" transform="translate(80, 5) scale(0.9)"/>
  </g>
</svg>
